<mxfile host="app.diagrams.net" modified="2023-06-06T15:08:03.137Z" agent="Mozilla/5.0 (Windows NT 10.0; Win64; x64) AppleWebKit/537.36 (KHTML, like Gecko) Chrome/114.0.0.0 Safari/537.36 Edg/114.0.1823.37" etag="YVTKpNOqysshYZwnkbDe" version="21.3.0" type="github">
  <diagram name="Page-1" id="c7488fd3-1785-93aa-aadb-54a6760d102a">
    <mxGraphModel dx="1455" dy="811" grid="1" gridSize="10" guides="1" tooltips="1" connect="1" arrows="1" fold="1" page="1" pageScale="1" pageWidth="1100" pageHeight="850" background="none" math="0" shadow="0">
      <root>
        <mxCell id="0" />
        <mxCell id="1" parent="0" />
        <mxCell id="2b4e8129b02d487f-1" value="Pool" style="swimlane;html=1;childLayout=stackLayout;horizontal=1;startSize=20;horizontalStack=0;rounded=0;shadow=0;labelBackgroundColor=none;strokeWidth=1;fontFamily=Verdana;fontSize=8;align=center;" parent="1" vertex="1">
          <mxGeometry x="40" y="40" width="1140" height="920" as="geometry" />
        </mxCell>
        <mxCell id="2b4e8129b02d487f-2" value="HR" style="swimlane;html=1;startSize=20;horizontal=0;" parent="2b4e8129b02d487f-1" vertex="1">
          <mxGeometry y="20" width="1140" height="150" as="geometry" />
        </mxCell>
        <mxCell id="2b4e8129b02d487f-18" style="edgeStyle=orthogonalEdgeStyle;rounded=0;html=1;labelBackgroundColor=none;startArrow=none;startFill=0;startSize=5;endArrow=classicThin;endFill=1;endSize=5;jettySize=auto;orthogonalLoop=1;strokeWidth=1;fontFamily=Verdana;fontSize=8" parent="2b4e8129b02d487f-2" source="2b4e8129b02d487f-5" target="2b4e8129b02d487f-6" edge="1">
          <mxGeometry relative="1" as="geometry" />
        </mxCell>
        <mxCell id="2b4e8129b02d487f-5" value="Start" style="ellipse;whiteSpace=wrap;html=1;rounded=0;shadow=0;labelBackgroundColor=none;strokeWidth=1;fontFamily=Verdana;fontSize=8;align=center;" parent="2b4e8129b02d487f-2" vertex="1">
          <mxGeometry x="60" y="60" width="30" height="30" as="geometry" />
        </mxCell>
        <mxCell id="2b4e8129b02d487f-6" value="Create job ad" style="rounded=1;whiteSpace=wrap;html=1;shadow=0;labelBackgroundColor=none;strokeWidth=1;fontFamily=Verdana;fontSize=8;align=center;" parent="2b4e8129b02d487f-2" vertex="1">
          <mxGeometry x="120" y="56.49999999999997" width="70" height="37" as="geometry" />
        </mxCell>
        <mxCell id="Lgo0z61gJsGLTFNYQmML-24" value="Conveys approval to candidate" style="rounded=1;whiteSpace=wrap;html=1;shadow=0;labelBackgroundColor=none;strokeWidth=1;fontFamily=Verdana;fontSize=8;align=center;" vertex="1" parent="2b4e8129b02d487f-2">
          <mxGeometry x="720" y="56.49999999999997" width="70" height="37" as="geometry" />
        </mxCell>
        <mxCell id="2b4e8129b02d487f-3" value="Applicant" style="swimlane;html=1;startSize=20;horizontal=0;" parent="2b4e8129b02d487f-1" vertex="1">
          <mxGeometry y="170" width="1140" height="150" as="geometry" />
        </mxCell>
        <mxCell id="2b4e8129b02d487f-12" value="Applies" style="rounded=1;whiteSpace=wrap;html=1;shadow=0;labelBackgroundColor=none;strokeWidth=1;fontFamily=Verdana;fontSize=8;align=center;" parent="2b4e8129b02d487f-3" vertex="1">
          <mxGeometry x="120" y="49.99999999999996" width="70" height="37" as="geometry" />
        </mxCell>
        <mxCell id="Lgo0z61gJsGLTFNYQmML-38" style="edgeStyle=orthogonalEdgeStyle;rounded=0;orthogonalLoop=1;jettySize=auto;html=1;exitX=1;exitY=0.5;exitDx=0;exitDy=0;entryX=0;entryY=0.5;entryDx=0;entryDy=0;entryPerimeter=0;" edge="1" parent="2b4e8129b02d487f-3" source="Lgo0z61gJsGLTFNYQmML-27" target="Lgo0z61gJsGLTFNYQmML-37">
          <mxGeometry relative="1" as="geometry" />
        </mxCell>
        <mxCell id="Lgo0z61gJsGLTFNYQmML-27" value="receives letter of appointment&amp;nbsp;" style="rounded=1;whiteSpace=wrap;html=1;shadow=0;labelBackgroundColor=none;strokeWidth=1;fontFamily=Verdana;fontSize=8;align=center;" vertex="1" parent="2b4e8129b02d487f-3">
          <mxGeometry x="810" y="49.99999999999997" width="70" height="37" as="geometry" />
        </mxCell>
        <mxCell id="Lgo0z61gJsGLTFNYQmML-34" value="End" style="ellipse;whiteSpace=wrap;html=1;rounded=0;shadow=0;labelBackgroundColor=none;strokeWidth=1;fontFamily=Verdana;fontSize=8;align=center;" vertex="1" parent="2b4e8129b02d487f-3">
          <mxGeometry x="1100" y="53.5" width="30" height="30" as="geometry" />
        </mxCell>
        <mxCell id="Lgo0z61gJsGLTFNYQmML-39" style="edgeStyle=orthogonalEdgeStyle;rounded=0;orthogonalLoop=1;jettySize=auto;html=1;exitX=1;exitY=0.5;exitDx=0;exitDy=0;exitPerimeter=0;entryX=0;entryY=0.5;entryDx=0;entryDy=0;" edge="1" parent="2b4e8129b02d487f-3" source="Lgo0z61gJsGLTFNYQmML-37" target="Lgo0z61gJsGLTFNYQmML-34">
          <mxGeometry relative="1" as="geometry" />
        </mxCell>
        <mxCell id="Lgo0z61gJsGLTFNYQmML-46" value="Yes" style="edgeLabel;html=1;align=center;verticalAlign=middle;resizable=0;points=[];" vertex="1" connectable="0" parent="Lgo0z61gJsGLTFNYQmML-39">
          <mxGeometry x="-0.2" relative="1" as="geometry">
            <mxPoint y="1" as="offset" />
          </mxGeometry>
        </mxCell>
        <mxCell id="Lgo0z61gJsGLTFNYQmML-37" value="Accepts?" style="strokeWidth=1;html=1;shape=mxgraph.flowchart.decision;whiteSpace=wrap;rounded=1;shadow=0;labelBackgroundColor=none;fontFamily=Verdana;fontSize=8;align=center;" vertex="1" parent="2b4e8129b02d487f-3">
          <mxGeometry x="960" y="43.5" width="60" height="50" as="geometry" />
        </mxCell>
        <mxCell id="2b4e8129b02d487f-4" value="System" style="swimlane;html=1;startSize=20;horizontal=0;" parent="2b4e8129b02d487f-1" vertex="1">
          <mxGeometry y="320" width="1140" height="150" as="geometry" />
        </mxCell>
        <mxCell id="Lgo0z61gJsGLTFNYQmML-43" style="edgeStyle=orthogonalEdgeStyle;rounded=0;orthogonalLoop=1;jettySize=auto;html=1;exitX=0.5;exitY=1;exitDx=0;exitDy=0;exitPerimeter=0;entryX=0;entryY=0.5;entryDx=0;entryDy=0;" edge="1" parent="2b4e8129b02d487f-4" source="2b4e8129b02d487f-13" target="Lgo0z61gJsGLTFNYQmML-35">
          <mxGeometry relative="1" as="geometry" />
        </mxCell>
        <mxCell id="Lgo0z61gJsGLTFNYQmML-44" value="No" style="edgeLabel;html=1;align=center;verticalAlign=middle;resizable=0;points=[];" vertex="1" connectable="0" parent="Lgo0z61gJsGLTFNYQmML-43">
          <mxGeometry x="-0.2174" y="-1" relative="1" as="geometry">
            <mxPoint as="offset" />
          </mxGeometry>
        </mxCell>
        <mxCell id="2b4e8129b02d487f-13" value="Qualified?" style="strokeWidth=1;html=1;shape=mxgraph.flowchart.decision;whiteSpace=wrap;rounded=1;shadow=0;labelBackgroundColor=none;fontFamily=Verdana;fontSize=8;align=center;" parent="2b4e8129b02d487f-4" vertex="1">
          <mxGeometry x="200" y="30" width="60" height="50" as="geometry" />
        </mxCell>
        <mxCell id="2b4e8129b02d487f-9" value="Invites candidates for interviews" style="rounded=1;whiteSpace=wrap;html=1;shadow=0;labelBackgroundColor=none;strokeWidth=1;fontFamily=Verdana;fontSize=8;align=center;" parent="2b4e8129b02d487f-4" vertex="1">
          <mxGeometry x="270" y="-240.00000000000003" width="70" height="37" as="geometry" />
        </mxCell>
        <mxCell id="Lgo0z61gJsGLTFNYQmML-6" value="" style="edgeStyle=orthogonalEdgeStyle;rounded=0;html=1;labelBackgroundColor=none;startArrow=none;startFill=0;startSize=5;endArrow=classicThin;endFill=1;endSize=5;jettySize=auto;orthogonalLoop=1;strokeWidth=1;fontFamily=Verdana;fontSize=8;exitX=1;exitY=0.5;exitDx=0;exitDy=0;exitPerimeter=0;" edge="1" parent="2b4e8129b02d487f-4" source="2b4e8129b02d487f-13" target="2b4e8129b02d487f-9">
          <mxGeometry x="-0.5006" y="6" relative="1" as="geometry">
            <mxPoint as="offset" />
            <mxPoint x="460" y="459" as="sourcePoint" />
            <mxPoint x="480" y="180" as="targetPoint" />
          </mxGeometry>
        </mxCell>
        <mxCell id="Lgo0z61gJsGLTFNYQmML-7" value="Yes" style="edgeLabel;html=1;align=center;verticalAlign=middle;resizable=0;points=[];" vertex="1" connectable="0" parent="Lgo0z61gJsGLTFNYQmML-6">
          <mxGeometry x="-0.0034" y="1" relative="1" as="geometry">
            <mxPoint as="offset" />
          </mxGeometry>
        </mxCell>
        <mxCell id="Lgo0z61gJsGLTFNYQmML-35" value="End" style="ellipse;whiteSpace=wrap;html=1;rounded=0;shadow=0;labelBackgroundColor=none;strokeWidth=1;fontFamily=Verdana;fontSize=8;align=center;" vertex="1" parent="2b4e8129b02d487f-4">
          <mxGeometry x="310" y="100" width="30" height="30" as="geometry" />
        </mxCell>
        <mxCell id="2b4e8129b02d487f-24" style="edgeStyle=orthogonalEdgeStyle;rounded=0;html=1;labelBackgroundColor=none;startArrow=none;startFill=0;startSize=5;endArrow=classicThin;endFill=1;endSize=5;jettySize=auto;orthogonalLoop=1;strokeWidth=1;fontFamily=Verdana;fontSize=8" parent="2b4e8129b02d487f-1" source="2b4e8129b02d487f-6" target="2b4e8129b02d487f-12" edge="1">
          <mxGeometry relative="1" as="geometry" />
        </mxCell>
        <mxCell id="Lgo0z61gJsGLTFNYQmML-2" value="Appointment Commitee" style="swimlane;html=1;startSize=20;horizontal=0;" vertex="1" parent="2b4e8129b02d487f-1">
          <mxGeometry y="470" width="1140" height="150" as="geometry" />
        </mxCell>
        <mxCell id="Lgo0z61gJsGLTFNYQmML-3" value="Conducts interview" style="rounded=1;whiteSpace=wrap;html=1;shadow=0;labelBackgroundColor=none;strokeWidth=1;fontFamily=Verdana;fontSize=8;align=center;" vertex="1" parent="Lgo0z61gJsGLTFNYQmML-2">
          <mxGeometry x="350" y="29.999999999999957" width="70" height="37" as="geometry" />
        </mxCell>
        <mxCell id="2b4e8129b02d487f-17" value="Selects candidate" style="rounded=1;whiteSpace=wrap;html=1;shadow=0;labelBackgroundColor=none;strokeWidth=1;fontFamily=Verdana;fontSize=8;align=center;" parent="Lgo0z61gJsGLTFNYQmML-2" vertex="1">
          <mxGeometry x="490" y="30" width="70" height="37" as="geometry" />
        </mxCell>
        <mxCell id="2b4e8129b02d487f-31" style="edgeStyle=orthogonalEdgeStyle;rounded=0;html=1;entryX=0;entryY=0.5;labelBackgroundColor=none;startArrow=none;startFill=0;startSize=5;endArrow=classicThin;endFill=1;endSize=5;jettySize=auto;orthogonalLoop=1;strokeWidth=1;fontFamily=Verdana;fontSize=8;exitX=1;exitY=0.5;exitDx=0;exitDy=0;entryDx=0;entryDy=0;" parent="Lgo0z61gJsGLTFNYQmML-2" source="Lgo0z61gJsGLTFNYQmML-3" target="2b4e8129b02d487f-17" edge="1">
          <mxGeometry relative="1" as="geometry">
            <mxPoint x="470" y="70" as="sourcePoint" />
          </mxGeometry>
        </mxCell>
        <mxCell id="Lgo0z61gJsGLTFNYQmML-5" style="edgeStyle=orthogonalEdgeStyle;rounded=0;orthogonalLoop=1;jettySize=auto;html=1;exitX=0.5;exitY=1;exitDx=0;exitDy=0;entryX=0;entryY=0.5;entryDx=0;entryDy=0;entryPerimeter=0;" edge="1" parent="2b4e8129b02d487f-1" source="2b4e8129b02d487f-12" target="2b4e8129b02d487f-13">
          <mxGeometry relative="1" as="geometry">
            <mxPoint x="250" y="350" as="targetPoint" />
          </mxGeometry>
        </mxCell>
        <mxCell id="2b4e8129b02d487f-22" style="edgeStyle=orthogonalEdgeStyle;rounded=0;html=1;entryX=0.5;entryY=0;labelBackgroundColor=none;startArrow=none;startFill=0;startSize=5;endArrow=classicThin;endFill=1;endSize=5;jettySize=auto;orthogonalLoop=1;strokeWidth=1;fontFamily=Verdana;fontSize=8;entryDx=0;entryDy=0;" parent="2b4e8129b02d487f-1" source="2b4e8129b02d487f-9" target="Lgo0z61gJsGLTFNYQmML-3" edge="1">
          <mxGeometry relative="1" as="geometry" />
        </mxCell>
        <mxCell id="Lgo0z61gJsGLTFNYQmML-9" value="Internal audit" style="swimlane;html=1;startSize=20;horizontal=0;" vertex="1" parent="2b4e8129b02d487f-1">
          <mxGeometry y="620" width="1140" height="150" as="geometry" />
        </mxCell>
        <mxCell id="Lgo0z61gJsGLTFNYQmML-10" value="Reviews selection" style="rounded=1;whiteSpace=wrap;html=1;shadow=0;labelBackgroundColor=none;strokeWidth=1;fontFamily=Verdana;fontSize=8;align=center;" vertex="1" parent="Lgo0z61gJsGLTFNYQmML-9">
          <mxGeometry x="560" y="56.49999999999996" width="70" height="37" as="geometry" />
        </mxCell>
        <mxCell id="Lgo0z61gJsGLTFNYQmML-12" value="Submits&amp;nbsp; for approval" style="rounded=1;whiteSpace=wrap;html=1;shadow=0;labelBackgroundColor=none;strokeWidth=1;fontFamily=Verdana;fontSize=8;align=center;" vertex="1" parent="Lgo0z61gJsGLTFNYQmML-9">
          <mxGeometry x="660" y="56.5" width="70" height="37" as="geometry" />
        </mxCell>
        <mxCell id="Lgo0z61gJsGLTFNYQmML-13" style="edgeStyle=orthogonalEdgeStyle;rounded=0;html=1;entryX=0;entryY=0.5;labelBackgroundColor=none;startArrow=none;startFill=0;startSize=5;endArrow=classicThin;endFill=1;endSize=5;jettySize=auto;orthogonalLoop=1;strokeWidth=1;fontFamily=Verdana;fontSize=8;exitX=1;exitY=0.5;exitDx=0;exitDy=0;entryDx=0;entryDy=0;" edge="1" parent="Lgo0z61gJsGLTFNYQmML-9" source="Lgo0z61gJsGLTFNYQmML-10" target="Lgo0z61gJsGLTFNYQmML-12">
          <mxGeometry relative="1" as="geometry">
            <mxPoint x="610" y="70" as="sourcePoint" />
          </mxGeometry>
        </mxCell>
        <mxCell id="Lgo0z61gJsGLTFNYQmML-16" style="edgeStyle=orthogonalEdgeStyle;rounded=0;orthogonalLoop=1;jettySize=auto;html=1;exitX=1;exitY=0.5;exitDx=0;exitDy=0;entryX=0.5;entryY=0;entryDx=0;entryDy=0;" edge="1" parent="2b4e8129b02d487f-1" source="2b4e8129b02d487f-17" target="Lgo0z61gJsGLTFNYQmML-10">
          <mxGeometry relative="1" as="geometry" />
        </mxCell>
        <mxCell id="Lgo0z61gJsGLTFNYQmML-17" value="CEO" style="swimlane;html=1;startSize=20;horizontal=0;" vertex="1" parent="2b4e8129b02d487f-1">
          <mxGeometry y="770" width="1140" height="150" as="geometry" />
        </mxCell>
        <mxCell id="Lgo0z61gJsGLTFNYQmML-31" value="Approved?" style="strokeWidth=1;html=1;shape=mxgraph.flowchart.decision;whiteSpace=wrap;rounded=1;shadow=0;labelBackgroundColor=none;fontFamily=Verdana;fontSize=8;align=center;" vertex="1" parent="Lgo0z61gJsGLTFNYQmML-17">
          <mxGeometry x="665" y="40" width="60" height="50" as="geometry" />
        </mxCell>
        <mxCell id="Lgo0z61gJsGLTFNYQmML-22" style="edgeStyle=orthogonalEdgeStyle;rounded=0;orthogonalLoop=1;jettySize=auto;html=1;exitX=0.5;exitY=1;exitDx=0;exitDy=0;entryX=0.5;entryY=0;entryDx=0;entryDy=0;entryPerimeter=0;" edge="1" parent="2b4e8129b02d487f-1" source="Lgo0z61gJsGLTFNYQmML-12" target="Lgo0z61gJsGLTFNYQmML-31">
          <mxGeometry relative="1" as="geometry">
            <mxPoint x="695" y="805" as="targetPoint" />
          </mxGeometry>
        </mxCell>
        <mxCell id="Lgo0z61gJsGLTFNYQmML-23" style="edgeStyle=orthogonalEdgeStyle;rounded=0;orthogonalLoop=1;jettySize=auto;html=1;entryX=0.5;entryY=1;entryDx=0;entryDy=0;exitX=1;exitY=0.5;exitDx=0;exitDy=0;exitPerimeter=0;" edge="1" parent="2b4e8129b02d487f-1" source="Lgo0z61gJsGLTFNYQmML-31" target="Lgo0z61gJsGLTFNYQmML-24">
          <mxGeometry relative="1" as="geometry">
            <mxPoint x="760" y="120" as="targetPoint" />
            <mxPoint x="800" y="840" as="sourcePoint" />
          </mxGeometry>
        </mxCell>
        <mxCell id="Lgo0z61gJsGLTFNYQmML-28" value="Yes" style="edgeLabel;html=1;align=center;verticalAlign=middle;resizable=0;points=[];" vertex="1" connectable="0" parent="Lgo0z61gJsGLTFNYQmML-23">
          <mxGeometry x="-0.2003" y="-5" relative="1" as="geometry">
            <mxPoint as="offset" />
          </mxGeometry>
        </mxCell>
        <mxCell id="Lgo0z61gJsGLTFNYQmML-25" style="edgeStyle=orthogonalEdgeStyle;rounded=0;orthogonalLoop=1;jettySize=auto;html=1;exitX=1;exitY=0.5;exitDx=0;exitDy=0;entryX=0.5;entryY=0;entryDx=0;entryDy=0;" edge="1" parent="2b4e8129b02d487f-1" source="Lgo0z61gJsGLTFNYQmML-24" target="Lgo0z61gJsGLTFNYQmML-27">
          <mxGeometry relative="1" as="geometry">
            <mxPoint x="850" y="210" as="targetPoint" />
          </mxGeometry>
        </mxCell>
        <mxCell id="Lgo0z61gJsGLTFNYQmML-29" style="edgeStyle=orthogonalEdgeStyle;rounded=0;orthogonalLoop=1;jettySize=auto;html=1;exitX=0;exitY=0.5;exitDx=0;exitDy=0;entryX=0.5;entryY=1;entryDx=0;entryDy=0;exitPerimeter=0;" edge="1" parent="2b4e8129b02d487f-1" source="Lgo0z61gJsGLTFNYQmML-31" target="2b4e8129b02d487f-17">
          <mxGeometry relative="1" as="geometry">
            <mxPoint x="660" y="837.5" as="sourcePoint" />
          </mxGeometry>
        </mxCell>
        <mxCell id="Lgo0z61gJsGLTFNYQmML-30" value="No" style="edgeLabel;html=1;align=center;verticalAlign=middle;resizable=0;points=[];" vertex="1" connectable="0" parent="Lgo0z61gJsGLTFNYQmML-29">
          <mxGeometry x="0.2147" relative="1" as="geometry">
            <mxPoint y="1" as="offset" />
          </mxGeometry>
        </mxCell>
        <mxCell id="Lgo0z61gJsGLTFNYQmML-42" style="edgeStyle=orthogonalEdgeStyle;rounded=0;orthogonalLoop=1;jettySize=auto;html=1;exitX=0.5;exitY=1;exitDx=0;exitDy=0;exitPerimeter=0;entryX=0.5;entryY=0;entryDx=0;entryDy=0;" edge="1" parent="2b4e8129b02d487f-1" source="Lgo0z61gJsGLTFNYQmML-37" target="2b4e8129b02d487f-17">
          <mxGeometry relative="1" as="geometry" />
        </mxCell>
        <mxCell id="Lgo0z61gJsGLTFNYQmML-45" value="No" style="edgeLabel;html=1;align=center;verticalAlign=middle;resizable=0;points=[];" vertex="1" connectable="0" parent="Lgo0z61gJsGLTFNYQmML-42">
          <mxGeometry x="-0.3691" y="3" relative="1" as="geometry">
            <mxPoint as="offset" />
          </mxGeometry>
        </mxCell>
      </root>
    </mxGraphModel>
  </diagram>
</mxfile>
